<?xml version="1.0" encoding="UTF-8"?>
<svg width="800px" height="800px" viewBox="0 0 800 800" xmlns="http://www.w3.org/2000/svg">
  <!-- Pot -->
  <path d="M250,600 L550,600 L580,750 L220,750 Z" fill="#ce7f5b"/>
  <path d="M240,600 L560,600 L540,650 L260,650 Z" fill="#994d33"/>
  
  <!-- Soil -->
  <path d="M250,600 C300,580 400,590 450,580 C500,570 530,590 550,600 L250,600 Z" fill="#5d3b24"/>
  
  <!-- Stem -->
  <path d="M400,580 C400,580 400,500 400,450 C400,400 380,380 360,350 C340,320 350,280 380,270 C410,260 440,280 450,320 
           C455,340 450,370 430,390 C420,400 410,410 410,430 C410,450 410,500 410,580" 
        fill="none" stroke="#228b22" stroke-width="10" stroke-linecap="round"/>
  
  <!-- Leaves -->
  <path d="M410,430 
          C440,420 470,400 490,370 
          C510,340 520,300 510,260 
          C500,220 470,190 440,180 
          C420,170 400,170 390,190 
          C380,210 390,250 410,280 
          C420,300 440,310 450,320" 
        fill="#3cb371"/>
        
  <path d="M360,350 
          C330,340 300,320 280,290 
          C260,260 250,220 260,180 
          C270,140 300,110 330,100 
          C350,90 370,90 380,110 
          C390,130 380,170 360,200 
          C350,220 330,230 320,240" 
        fill="#3cb371"/>
  
  <!-- Flower -->
  <g transform="translate(400, 270)">
    <!-- Petals -->
    <path d="M0,-40 C10,-50 30,-50 40,-40 C50,-30 50,-10 40,0 C30,10 10,10 0,0 C-10,-10 -10,-30 0,-40 Z" fill="#dc3333" transform="rotate(0)"/>
    <path d="M0,-40 C10,-50 30,-50 40,-40 C50,-30 50,-10 40,0 C30,10 10,10 0,0 C-10,-10 -10,-30 0,-40 Z" fill="#dc3333" transform="rotate(60)"/>
    <path d="M0,-40 C10,-50 30,-50 40,-40 C50,-30 50,-10 40,0 C30,10 10,10 0,0 C-10,-10 -10,-30 0,-40 Z" fill="#dc3333" transform="rotate(120)"/>
    <path d="M0,-40 C10,-50 30,-50 40,-40 C50,-30 50,-10 40,0 C30,10 10,10 0,0 C-10,-10 -10,-30 0,-40 Z" fill="#dc3333" transform="rotate(180)"/>
    <path d="M0,-40 C10,-50 30,-50 40,-40 C50,-30 50,-10 40,0 C30,10 10,10 0,0 C-10,-10 -10,-30 0,-40 Z" fill="#dc3333" transform="rotate(240)"/>
    <path d="M0,-40 C10,-50 30,-50 40,-40 C50,-30 50,-10 40,0 C30,10 10,10 0,0 C-10,-10 -10,-30 0,-40 Z" fill="#dc3333" transform="rotate(300)"/>
    
    <!-- Center -->
    <circle cx="0" cy="0" r="15" fill="#ffcc00"/>
  </g>
</svg> 