<?xml version="1.0" encoding="UTF-8"?>
<svg width="800px" height="800px" viewBox="0 0 800 800" xmlns="http://www.w3.org/2000/svg">
  <!-- Bottom puzzle pieces (gray) -->
  <g transform="translate(100, 100)">
    <!-- Left piece -->
    <path d="M0,200 L100,200 L100,150 C100,120 130,120 150,150 C170,120 200,120 200,150 L200,200 L300,200 L300,300 L250,300 
      C220,300 220,330 250,350 C220,370 220,400 250,400 L300,400 L300,500 L200,500 L200,550 C200,580 170,580 150,550 
      C130,580 100,580 100,550 L100,500 L0,500 Z" 
      fill="#ddd" stroke="#333" stroke-width="5"/>
    
    <!-- Right piece -->
    <path d="M300,300 L350,300 C380,300 380,330 350,350 C380,370 380,400 350,400 L300,400 Z" 
      fill="#ddd" stroke="#333" stroke-width="5"/>
  </g>
  
  <!-- Top red piece -->
  <path d="M400,200 L500,200 L500,100 L450,100 C420,100 420,70 450,50 C420,30 420,0 450,0 L500,0 L600,0 L600,100 L650,100 
    C680,100 680,130 650,150 C680,170 680,200 650,200 L600,200 L600,300 L500,300 L500,350 C500,380 470,380 450,350 
    C430,380 400,380 400,350 L400,300 L300,300 L300,200 Z"
    fill="#dc3333" stroke="#333" stroke-width="5"/>
</svg> 