<?xml version="1.0" encoding="UTF-8"?>
<svg width="800px" height="800px" viewBox="0 0 800 800" xmlns="http://www.w3.org/2000/svg">
  <!-- Unicorn silhouette -->
  <path d="M450,200 
    C450,190 460,180 470,170 
    C480,160 490,150 500,140
    C520,120 530,100 535,85
    C540,70 540,60 535,55
    C530,50 520,50 510,55
    C500,60 490,70 485,80
    C480,90 480,100 485,110
    C490,120 500,125 510,128
    C520,130 530,125 535,115
    C540,105 540,90 535,80
    C530,70 520,65 510,65
    C500,65 490,70 485,80
    C480,90 480,100 485,110
    C485,110 485,110 485,110
    
    C485,120 478,130 470,140
    C462,150 452,160 445,170
    C437,180 430,190 430,200
    
    C430,210 428,220 425,230
    C422,240 417,250 410,260
    C403,270 393,280 380,290
    
    C367,300 352,310 340,325
    C328,340 320,360 325,380
    C330,400 350,420 380,430
    
    C410,440 450,440 490,430
    C530,420 570,400 590,370
    
    C610,340 610,300 590,270
    C570,240 530,220 480,210
    
    C430,200 370,200 310,210
    C250,220 190,240 140,270
    
    C120,285 105,300 95,320
    C85,340 80,365 80,390
    
    C80,415 85,440 95,460
    C105,480 120,495 140,510
    
    C160,525 185,535 220,545
    C190,550 160,555 150,565
    C140,575 150,590 180,600
    
    C210,610 260,615 320,615
    C380,615 450,610 480,605
    C510,600 500,595 470,590
    
    C550,580 615,560 665,530
    C715,500 750,460 765,420
    C780,380 775,340 740,310
    
    C740,310 740,310 740,310
    C780,280 795,250 785,220
    C775,190 740,160 680,140
    
    C680,140 680,140 680,140
    C690,120 690,100 680,85
    C670,70 650,60 620,55
    
    C590,50 550,50 510,60
    C470,70 430,90 410,120
    C420,100 430,90 440,85
    C450,80 460,80 470,90
    C480,100 490,120 495,140
    C475,145 460,155 450,170
    C440,185 435,205 435,230
    Z" 
    fill="black"/>
</svg> 