<svg width="350" height="300" viewBox="0 0 350 300" xmlns="http://www.w3.org/2000/svg">
  <rect width="350" height="300" fill="#192024"/>
  
  <!-- Figma design canvas mock -->
  <rect x="70" y="40" width="240" height="180" rx="2" fill="#2D3B41"/>
  
  <!-- Layers panel -->
  <rect x="70" y="40" width="60" height="180" rx="2" fill="#1A1F23"/>
  <rect x="80" y="60" width="40" height="10" rx="1" fill="#384A52"/>
  <rect x="80" y="80" width="30" height="10" rx="1" fill="#384A52"/>
  <rect x="80" y="100" width="40" height="10" rx="1" fill="#384A52"/>
  <rect x="80" y="120" width="35" height="10" rx="1" fill="#384A52"/>
  
  <!-- Canvas objects -->
  <rect x="150" y="70" width="100" height="40" rx="5" fill="#00ff7f" opacity="0.3"/>
  <rect x="150" y="130" width="140" height="20" rx="2" fill="#384A52"/>
  <rect x="150" y="160" width="80" height="20" rx="10" fill="#384A52"/>
  
  <!-- Figma logo simplified -->
  <g transform="translate(260, 210)">
    <circle cx="0" cy="0" r="15" fill="#F24E1E"/>
    <circle cx="0" cy="-30" r="15" fill="#A259FF"/>
    <circle cx="30" cy="-15" r="15" fill="#0ACF83"/>
    <circle cx="0" cy="30" r="15" fill="#1ABCFE"/>
    <circle cx="-30" cy="-15" r="15" fill="#FF7262"/>
  </g>
</svg> 