<svg width="400" height="700" viewBox="0 0 400 700" fill="none" xmlns="http://www.w3.org/2000/svg">
  <defs>
    <linearGradient id="grad5" x1="0%" y1="0%" x2="100%" y2="100%">
      <stop offset="0%" style="stop-color:#1f2937;stop-opacity:1" />
      <stop offset="50%" style="stop-color:#374151;stop-opacity:1" />
      <stop offset="100%" style="stop-color:#4b5563;stop-opacity:1" />
    </linearGradient>
    <radialGradient id="planet5" cx="50%" cy="40%" r="42%">
      <stop offset="0%" style="stop-color:#fbbf24;stop-opacity:1" />
      <stop offset="70%" style="stop-color:#f59e0b;stop-opacity:1" />
      <stop offset="100%" style="stop-color:#d97706;stop-opacity:1" />
    </radialGradient>
  </defs>
  
  <!-- Background -->
  <rect width="400" height="700" fill="url(#grad5)"/>
  
  <!-- Stars -->
  <circle cx="90" cy="60" r="2" fill="white" opacity="0.8"/>
  <circle cx="180" cy="40" r="1.5" fill="white" opacity="0.9"/>
  <circle cx="290" cy="80" r="2" fill="white" opacity="0.6"/>
  <circle cx="310" cy="150" r="1" fill="white" opacity="0.8"/>
  <circle cx="120" cy="210" r="1.5" fill="white" opacity="0.7"/>
  <circle cx="280" cy="290" r="2" fill="white" opacity="0.9"/>
  <circle cx="110" cy="390" r="1" fill="white" opacity="0.6"/>
  <circle cx="240" cy="450" r="1.5" fill="white" opacity="0.8"/>
  
  <!-- Main Planet -->
  <circle cx="200" cy="280" r="92" fill="url(#planet5)"/>
  
  <!-- Laboratory structures -->
  <rect x="170" y="240" width="60" height="80" fill="#d97706" opacity="0.7"/>
  <rect x="180" y="250" width="40" height="60" fill="#f59e0b" opacity="0.5"/>
  
  <!-- Tech elements -->
  <circle cx="150" cy="200" r="15" fill="#06b6d4" opacity="0.8"/>
  <circle cx="250" cy="360" r="20" fill="#06b6d4" opacity="0.6"/>
  <circle cx="320" cy="380" r="18" fill="#8b5cf6" opacity="0.7"/>
  
  <!-- Energy beams -->
  <path d="M120 480 Q160 500 200 480 Q160 460 120 480" fill="#06b6d4" opacity="0.8"/>
  <path d="M200 520 Q240 540 280 520 Q240 500 200 520" fill="#06b6d4" opacity="0.6"/>
  
  <!-- Laboratory equipment silhouettes -->
  <rect x="50" y="380" width="8" height="30" fill="#9ca3af" opacity="0.8"/>
  <circle cx="54" cy="375" r="6" fill="#9ca3af" opacity="0.8"/>
  
  <rect x="340" y="360" width="6" height="25" fill="#9ca3af" opacity="0.7"/>
  <circle cx="343" cy="355" r="5" fill="#9ca3af" opacity="0.7"/>
  
  <!-- Text overlay -->
  <text x="200" y="600" text-anchor="middle" fill="white" font-family="Arial, sans-serif" font-size="24" font-weight="bold">Hawkins Labs</text>
</svg>