<svg width="400" height="700" viewBox="0 0 400 700" fill="none" xmlns="http://www.w3.org/2000/svg">
  <defs>
    <linearGradient id="grad4" x1="0%" y1="0%" x2="100%" y2="100%">
      <stop offset="0%" style="stop-color:#0c4a6e;stop-opacity:1" />
      <stop offset="50%" style="stop-color:#0369a1;stop-opacity:1" />
      <stop offset="100%" style="stop-color:#0284c7;stop-opacity:1" />
    </linearGradient>
    <radialGradient id="planet4" cx="50%" cy="40%" r="38%">
      <stop offset="0%" style="stop-color:#7dd3fc;stop-opacity:1" />
      <stop offset="70%" style="stop-color:#38bdf8;stop-opacity:1" />
      <stop offset="100%" style="stop-color:#0284c7;stop-opacity:1" />
    </radialGradient>
  </defs>
  
  <!-- Background -->
  <rect width="400" height="700" fill="url(#grad4)"/>
  
  <!-- Stars -->
  <circle cx="80" cy="70" r="2" fill="white" opacity="0.9"/>
  <circle cx="170" cy="50" r="1.5" fill="white" opacity="0.8"/>
  <circle cx="300" cy="90" r="2" fill="white" opacity="0.7"/>
  <circle cx="320" cy="160" r="1" fill="white" opacity="0.9"/>
  <circle cx="110" cy="220" r="1.5" fill="white" opacity="0.6"/>
  <circle cx="290" cy="300" r="2" fill="white" opacity="0.8"/>
  <circle cx="120" cy="400" r="1" fill="white" opacity="0.7"/>
  <circle cx="250" cy="460" r="1.5" fill="white" opacity="0.9"/>
  
  <!-- Main Planet -->
  <circle cx="200" cy="285" r="88" fill="url(#planet4)"/>
  
  <!-- Island features -->
  <ellipse cx="180" cy="255" rx="25" ry="15" fill="#0284c7" opacity="0.6"/>
  <ellipse cx="220" cy="305" rx="30" ry="18" fill="#0284c7" opacity="0.4"/>
  <ellipse cx="195" cy="325" rx="20" ry="12" fill="#0c4a6e" opacity="0.7"/>
  
  <!-- Tropical elements -->
  <circle cx="130" cy="180" r="18" fill="#06b6d4" opacity="0.8"/>
  <circle cx="290" cy="400" r="25" fill="#67e8f9" opacity="0.6"/>
  
  <!-- Water effects -->
  <path d="M140 490 Q180 510 220 490 Q180 470 140 490" fill="#0ea5e9" opacity="0.7"/>
  <path d="M160 540 Q200 560 240 540 Q200 520 160 540" fill="#0ea5e9" opacity="0.5"/>
  
  <!-- Palm tree silhouettes -->
  <path d="M350 350 Q360 340 370 350 Q360 360 350 350" fill="#065f46" opacity="0.8"/>
  <rect x="358" y="350" width="4" height="40" fill="#065f46" opacity="0.8"/>
  
  <!-- Text overlay -->
  <text x="200" y="600" text-anchor="middle" fill="white" font-family="Arial, sans-serif" font-size="24" font-weight="bold">Paradise Island</text>
</svg>