<svg width="400" height="600" viewBox="0 0 400 600" xmlns="http://www.w3.org/2000/svg">
  <defs>
    <linearGradient id="bg7" x1="0%" y1="0%" x2="100%" y2="100%">
      <stop offset="0%" style="stop-color:#059669;stop-opacity:1" />
      <stop offset="50%" style="stop-color:#0891B2;stop-opacity:1" />
      <stop offset="100%" style="stop-color:#0F766E;stop-opacity:1" />
    </linearGradient>
    <radialGradient id="planet7" cx="50%" cy="50%" r="50%">
      <stop offset="0%" style="stop-color:#34D399;stop-opacity:1" />
      <stop offset="70%" style="stop-color:#059669;stop-opacity:1" />
      <stop offset="100%" style="stop-color:#064E3B;stop-opacity:1" />
    </radialGradient>
  </defs>
  
  <!-- Background -->
  <rect width="400" height="600" fill="url(#bg7)"/>
  
  <!-- Stars -->
  <circle cx="60" cy="90" r="2" fill="white" opacity="0.8"/>
  <circle cx="160" cy="130" r="1.5" fill="white" opacity="0.6"/>
  <circle cx="310" cy="110" r="2" fill="white" opacity="0.9"/>
  <circle cx="340" cy="160" r="1" fill="white" opacity="0.7"/>
  <circle cx="90" cy="210" r="1.5" fill="white" opacity="0.8"/>
  <circle cx="330" cy="260" r="2" fill="white" opacity="0.6"/>
  <circle cx="130" cy="360" r="1" fill="white" opacity="0.9"/>
  <circle cx="290" cy="410" r="1.5" fill="white" opacity="0.7"/>
  
  <!-- Main Planet -->
  <circle cx="200" cy="280" r="80" fill="url(#planet7)"/>
  
  <!-- Financial Elements -->
  <rect x="170" y="250" width="60" height="40" rx="5" fill="#A7F3D0" opacity="0.7"/>
  <rect x="175" y="255" width="50" height="30" rx="3" fill="#34D399" opacity="0.8"/>
  <circle cx="185" cy="270" r="8" fill="#059669"/>
  <text x="200" y="275" text-anchor="middle" fill="white" font-family="Arial" font-size="12" font-weight="bold">$</text>
  
  <!-- Data Streams -->
  <path d="M 150 260 Q 180 240 210 260" stroke="#A7F3D0" stroke-width="3" fill="none" opacity="0.6"/>
  <path d="M 190 300 Q 220 280 250 300" stroke="#A7F3D0" stroke-width="3" fill="none" opacity="0.6"/>
  
  <!-- Smaller Planets -->
  <circle cx="110" cy="160" r="25" fill="#0891B2" opacity="0.8"/>
  <circle cx="310" cy="190" r="20" fill="#059669" opacity="0.7"/>
  <circle cx="90" cy="460" r="30" fill="#0F766E" opacity="0.6"/>
  
  <!-- Tech Rings -->
  <ellipse cx="200" cy="280" rx="100" ry="20" fill="none" stroke="#34D399" stroke-width="2" opacity="0.4"/>
  <ellipse cx="200" cy="280" rx="120" ry="25" fill="none" stroke="#A7F3D0" stroke-width="1" opacity="0.3"/>
  
  <!-- Title -->
  <text x="200" y="520" text-anchor="middle" fill="white" font-family="Arial, sans-serif" font-size="28" font-weight="bold">
    FinTech World
  </text>
</svg>